<svg width="649" height="813" viewBox="0 0 649 813" fill="none" xmlns="http://www.w3.org/2000/svg">
<path d="M278.572 485.235C276.611 567.592 274.029 649.583 274.029 732.065C274.029 767.762 266.838 782.866 301.286 798.694C327.312 810.652 388.044 811.479 408.044 784.813C425.91 760.991 433.03 751.753 433.03 718.184C433.03 653.758 445.001 578.045 420.411 518.044C413.096 500.195 408.028 474.366 394.163 460.501C384.516 450.854 339.783 458.206 328.544 463.53C308.59 472.982 290.541 490.197 274.029 503.406" stroke="black" stroke-width="12" stroke-linecap="round"/>
<path d="M228.601 258.088V635.147" stroke="black" stroke-width="12" stroke-linecap="round"/>
<path d="M469.367 262.627V639.686" stroke="black" stroke-width="12" stroke-linecap="round"/>
<path d="M314.913 189.947C300.247 178.214 268.015 184.166 260.398 201.304C250.959 222.543 251.599 267.659 256.865 289.89C266.365 330.005 306.646 345.448 342.927 344.153C378.847 342.87 402.207 339.497 421.418 308.062C428.904 295.812 435.024 280.665 439.842 267.176C455.987 221.97 429.019 184.056 385.075 176.066C352.929 170.221 293.882 153.095 278.569 199.033" stroke="black" stroke-width="12" stroke-linecap="round"/>
<path d="M314.916 158.143C314.916 141.878 295.584 120.022 287.659 106.153C282.714 97.499 281.673 65.8997 271.507 62.9952C230.204 51.1944 181.546 58.1999 138.753 58.1999C99.0452 58.1999 59.3371 58.1999 19.6289 58.1999" stroke="black" stroke-width="12" stroke-linecap="round"/>
<path d="M383.056 167.228C383.056 140.686 375.692 108.972 395.675 88.9891C411.778 72.8858 457.987 76.3699 480.728 76.3699C502.685 76.3699 524.642 76.3699 546.599 76.3699C578.668 76.3699 610.382 67.2842 642 67.2842" stroke="black" stroke-width="12" stroke-linecap="round"/>
<path d="M460.287 189.943C507.391 216.112 535.76 243.229 532.973 298.973C531.411 330.215 507.423 354.546 505.715 385.287C505.313 392.533 501.834 413.437 497.639 418.097C491.25 425.196 483.001 439.621 483.001 448.888" stroke="black" stroke-width="12" stroke-linecap="round"/>
<path d="M196.796 453.429C196.796 409.981 178.625 370.211 178.625 326.228C178.625 306.148 181.027 291.871 186.701 272.723C199.323 230.122 194.338 194.484 246.768 194.484" stroke="black" stroke-width="12" stroke-linecap="round"/>
<path d="M264.936 389.827C264.936 441.668 255.85 490.023 255.85 541.761C255.85 560.103 260.393 578.031 260.393 595.266C260.393 604.785 265.497 625.53 252.317 626.057C238.397 626.614 224.352 626.057 210.421 626.057" stroke="black" stroke-width="12" stroke-linecap="round"/>
<path d="M264.938 385.284C283.033 385.284 290.685 384.378 305.823 377.208C319.184 370.879 329.051 362.569 344.69 362.569C369.731 362.569 395.764 368.008 410.31 389.827" stroke="black" stroke-width="12" stroke-linecap="round"/>
<path d="M414.853 398.912C428.727 402.381 423.939 450.846 423.939 462.765C423.939 486.943 442.11 502.661 442.11 526.113C442.11 569.619 455.739 609.12 455.739 653.314" stroke="black" stroke-width="12" stroke-linecap="round"/>
<path d="M519.343 67.2917C541.654 67.2917 561.273 67.3117 582.943 61.7392C599.968 57.3613 616.047 49.1201 632.915 49.1201" stroke="black" stroke-width="12" stroke-linecap="round"/>
<path d="M519.343 94.539C551.608 97.7655 599.282 109.39 628.372 89.9961" stroke="black" stroke-width="12" stroke-linecap="round"/>
<path d="M560.228 90.0037C580.055 90.0037 630.52 99.3343 642 76.375" stroke="black" stroke-width="12" stroke-linecap="round"/>
<path d="M10.54 49.1201H119.569" stroke="black" stroke-width="12" stroke-linecap="round"/>
<path d="M6 71.8249C8.90088 95.0319 112.51 76.3678 135.472 76.3678C154.275 76.3678 120.567 67.8907 117.553 67.0296C101.942 62.5695 86.789 62.7391 69.6004 62.7391" stroke="black" stroke-width="12" stroke-linecap="round"/>
<path d="M269.486 176.311C269.486 159.654 269.486 142.997 269.486 126.34C269.486 104.655 281.591 83.8255 283.114 61.7298C284.673 39.1376 317.134 35.895 319.458 17.3105C322.361 -5.91481 389.791 11.4641 397.696 26.3963C405.322 40.8001 415.401 52.2153 422.934 67.2822C432.106 85.6248 432.114 107.356 441.106 126.34C447.247 139.305 454.359 208.112 437.573 208.112" stroke="black" stroke-width="12" stroke-linecap="round"/>
</svg>
