<svg width="707" height="873" viewBox="0 0 707 873" fill="none" xmlns="http://www.w3.org/2000/svg">
<path d="M313.303 424.984C311.589 496.987 309.331 568.67 309.331 640.781C309.331 671.991 303.045 685.196 333.162 699.034C355.916 709.488 409.013 710.211 426.498 686.898C442.118 666.071 448.342 657.995 448.342 628.646C448.342 572.32 458.809 506.126 437.31 453.668C430.914 438.064 426.484 415.482 414.362 403.36C405.928 394.926 366.818 401.353 356.992 406.008C339.547 414.271 323.768 429.322 309.331 440.871" stroke="black" stroke-width="12" stroke-linecap="round"/>
<path d="M269.615 226.395V556.049" stroke="black" stroke-width="12" stroke-linecap="round"/>
<path d="M480.111 230.363V560.018" stroke="black" stroke-width="12" stroke-linecap="round"/>
<path d="M345.075 166.82C332.253 156.563 304.074 161.766 297.414 176.75C289.162 195.318 289.722 234.762 294.325 254.198C302.631 289.27 337.848 302.772 369.567 301.639C400.972 300.517 421.395 297.569 438.19 270.085C444.735 259.376 450.086 246.133 454.298 234.34C468.413 194.817 444.835 161.67 406.416 154.684C378.312 149.575 326.689 134.601 313.301 174.764" stroke="black" stroke-width="12" stroke-linecap="round"/>
<path d="M345.079 139.016C345.079 124.795 328.177 105.687 321.248 93.5616C316.925 85.996 316.014 58.3695 307.126 55.8301C271.016 45.5129 228.476 51.6377 191.063 51.6377C156.347 51.6377 121.631 51.6377 86.9155 51.6377" stroke="black" stroke-width="12" stroke-linecap="round"/>
<path d="M404.651 146.957C404.651 123.753 398.213 96.0256 415.684 78.5552C429.762 64.4765 470.162 67.5226 490.044 67.5226C509.24 67.5226 528.437 67.5226 547.634 67.5226C575.671 67.5226 603.397 59.5791 631.04 59.5791" stroke="black" stroke-width="12" stroke-linecap="round"/>
<path d="M472.172 166.817C513.354 189.696 538.157 213.404 535.72 262.139C534.354 289.453 513.383 310.726 511.89 337.602C511.538 343.937 508.496 362.212 504.829 366.287C499.243 372.494 492.031 385.105 492.031 393.207" stroke="black" stroke-width="12" stroke-linecap="round"/>
<path d="M241.809 397.176C241.809 359.191 225.922 324.421 225.922 285.968C225.922 268.412 228.023 255.93 232.983 239.189C244.018 201.944 239.66 170.787 285.498 170.787" stroke="black" stroke-width="12" stroke-linecap="round"/>
<path d="M301.382 341.571C301.382 386.894 293.438 429.17 293.438 474.404C293.438 490.44 297.41 506.114 297.41 521.182C297.41 529.504 301.872 547.641 290.349 548.102C278.179 548.589 265.9 548.102 253.721 548.102" stroke="black" stroke-width="12" stroke-linecap="round"/>
<path d="M301.383 337.599C317.204 337.599 323.894 336.807 337.129 330.538C348.81 325.005 357.436 317.74 371.109 317.74C393.001 317.74 415.762 322.495 428.479 341.571" stroke="black" stroke-width="12" stroke-linecap="round"/>
<path d="M432.451 349.514C444.581 352.546 440.394 394.918 440.394 405.339C440.394 426.477 456.281 440.219 456.281 460.722C456.281 498.758 468.196 533.294 468.196 571.931" stroke="black" stroke-width="12" stroke-linecap="round"/>
<path d="M523.804 83.4073C552.013 86.2282 593.692 96.3909 619.125 79.4355" stroke="black" stroke-width="12" stroke-linecap="round"/>
<path d="M305.36 154.899C305.36 140.336 305.36 125.773 305.36 111.21C305.36 92.2519 315.943 74.0411 317.275 54.7233C318.637 34.9715 347.018 32.1365 349.049 15.8885C351.587 -4.41685 410.54 10.7771 417.451 23.832C424.118 36.425 432.93 46.405 439.516 59.5777C447.535 75.6141 447.542 94.6135 455.403 111.21C460.773 122.545 466.99 182.702 452.314 182.702" stroke="black" stroke-width="12" stroke-linecap="round"/>
<path d="M10.6254 726.472C10.6254 763.446 4.61018 806.048 12.5345 842.5C16.2975 859.81 12.0482 837.197 11.4739 832.53C8.88886 811.527 10.6254 789.609 10.6254 768.471C10.6254 759.698 4.62554 711.2 16.3526 711.2C36.2752 711.2 41.1702 752.614 41.1702 765.926C41.1702 782.788 40.1007 793.265 20.1707 791.168C18.7613 791.019 1.80502 784.13 5.53463 780.774C8.89043 777.754 23.4187 779.301 28.019 780.137C39.2191 782.174 41.1702 795.198 41.1702 804.531C41.1702 816.772 22.504 820.378 22.504 824.046C22.504 830.856 33.3028 829.676 37.3521 829.561C50.0221 829.199 54.7434 820.868 60.0486 810.258C66.5397 797.276 62.616 750.01 71.715 790.955C77.3215 816.185 91.7765 792.474 100.139 786.501C102.37 784.907 93.8099 827.419 100.563 829.349C122.285 835.555 155.679 788.888 147.016 786.289C122.525 778.942 110.403 832.205 123.259 829.349C137.264 826.236 149.223 801.39 154.865 790.107C162.236 775.365 159.531 800.834 159.531 806.44C159.531 812.353 158.282 819.912 159.531 825.743C160.042 828.126 196.388 777.483 198.985 772.289C213.659 742.941 220.197 711.3 220.197 678.534C220.197 649.935 213.346 670.15 212.985 685.321C211.987 727.23 215.37 778.536 202.379 818.955C197.528 834.046 192.952 806.725 192.197 802.198C189.094 783.581 184.989 752.832 195.591 735.805C204.639 721.274 229.147 732.293 235.045 745.562C239.836 756.342 179.092 764.39 178.622 779.925C177.992 800.691 219.294 819.896 235.893 824.046C268.102 832.098 285.528 807.464 285.528 776.956C285.528 767.474 276.012 767.809 270.256 772.926C257.366 784.384 258.358 802.355 258.802 818.106C259.432 840.473 279.326 862.146 303.77 849.924C316.658 843.48 351.362 767.725 323.709 764.653C309.984 763.128 315.637 789.099 330.497 787.562C335.401 787.054 352.27 773.196 354.254 778.653C359.877 794.117 362.07 810.803 366.557 826.591C372.893 848.885 383.555 880.982 406.859 857.136C423.435 840.174 419.797 820.2 434.434 843.985C453.944 875.688 453.649 811.998 453.525 796.895C453.435 785.922 453.513 755.739 440.161 749.805C434.422 747.254 434.434 753.33 434.434 757.017" stroke="black" stroke-width="10" stroke-linecap="round"/>
<path d="M522.251 799.016C498.306 799.016 479.32 799.534 461.373 815.985C443.016 832.812 472.937 856.756 489.585 856.287C562.788 854.225 630.331 767.74 624.915 698.685C623.265 677.642 606.931 666.281 587.582 679.806C548.517 707.115 528.398 772.727 530.735 818.531C532.875 860.469 573.386 870.378 608.158 859.469C631.047 852.288 660.541 831.458 670.308 808.773C676.737 793.841 678.417 774.438 657.157 776.956C619.199 781.451 583.405 825.383 615.794 857.772C647.369 889.348 681.965 834.024 701.701 814.288" stroke="black" stroke-width="10" stroke-linecap="round"/>
</svg>
