<svg width="100" height="100" viewBox="0 0 100 100" fill="none" xmlns="http://www.w3.org/2000/svg">
<circle cx="50" cy="50" r="48.5" stroke="#B91C1C" stroke-width="3"/>
<path d="M46.2857 26H41.1429C39.7789 26 38.4708 26.5418 37.5063 27.5063C36.5418 28.4708 36 29.7789 36 31.1429V68.8571C36 70.2211 36.5418 71.5292 37.5063 72.4937C38.4708 73.4582 39.7789 74 41.1429 74H58.2857C59.6497 74 60.9578 73.4582 61.9223 72.4937C62.8867 71.5292 63.4286 70.2211 63.4286 68.8571V31.1429C63.4286 29.7789 62.8867 28.4708 61.9223 27.5063C60.9578 26.5418 59.6497 26 58.2857 26H53.1429M46.2857 26V29.4286H53.1429V26M46.2857 26H53.1429M46.2857 68.8571H53.1429" stroke="#B91C1C" stroke-width="2" stroke-linecap="round" stroke-linejoin="round"/>
<path d="M49.7666 51.75C51.4235 51.75 52.7666 50.4069 52.7666 48.75C52.7666 47.0931 51.4235 45.75 49.7666 45.75C48.1097 45.75 46.7666 47.0931 46.7666 48.75C46.7666 50.4069 48.1097 51.75 49.7666 51.75Z" fill="#B91C1C"/>
<path fill-rule="evenodd" clip-rule="evenodd" d="M39.09 48.1967C40.5773 43.7257 44.7945 40.5 49.7671 40.5C54.7374 40.5 58.9531 43.7227 60.4421 48.1905C60.5625 48.5515 60.5626 48.9422 60.4425 49.3033C58.9552 53.7743 54.738 57 49.7654 57C44.7951 57 40.5794 53.7773 39.0903 49.3095C38.97 48.9485 38.9699 48.5578 39.09 48.1967ZM55.0166 48.75C55.0166 51.6495 52.6661 54 49.7666 54C46.8671 54 44.5166 51.6495 44.5166 48.75C44.5166 45.8505 46.8671 43.5 49.7666 43.5C52.6661 43.5 55.0166 45.8505 55.0166 48.75Z" fill="#B91C1C"/>
<path d="M9 73.7705L88.8383 22.8399" stroke="#B91C1C" stroke-width="3" stroke-linecap="round"/>
</svg>
