<svg width="1000" height="1000" viewBox="0 0 1000 1000" fill="none" xmlns="http://www.w3.org/2000/svg">
<circle cx="500" cy="500" r="389" stroke="white" stroke-width="222"/>
<path d="M508.948 140.474C494.942 136.483 483.656 133.822 473.272 145.166C465.733 153.402 456.286 162.107 460.513 174.879C464.146 185.86 478.869 191.337 489.161 194.269C494.399 195.762 499.177 197.563 504.67 197.203C512.077 196.718 509.217 191.665 514.282 189.541C518.935 187.59 521.353 169.941 522.705 165.196C525.768 154.449 522.001 152.89 514.492 146.512C508.169 141.139 489.458 136.088 481.117 136.175C469.278 136.299 468.168 143.282 462.066 150.888C442.753 174.961 485.494 188.035 500.348 191.514C516.48 195.291 530.387 149.29 515.776 142.585C494.398 132.774 462.786 125.188 454.74 153.423C446.314 182.992 496.655 190.33 516.614 186.573C527.988 184.433 535.211 164.076 533.253 153.674C531.61 144.944 515.428 136.623 507.766 134.194C480.02 125.398 455.546 137.714 453.769 167.84C452.455 190.104 504.617 199.468 517.422 188.95C543.385 167.625 521.265 141.012 495.989 133.81C474.42 127.663 453.95 129.976 448.112 155.827C443.491 176.286 489.543 206.025 507.223 199.251C515.652 196.022 523.642 196.36 527.693 187.089C531.473 178.437 536.181 167.281 533.038 157.905C528.898 145.557 525.343 139.203 512.653 135.587C503.75 133.05 477.634 120.76 468.332 128.9C457.528 138.355 449.345 140.518 464.204 151.497" stroke="#373636" stroke-width="7" stroke-linecap="round"/>
<path d="M700.223 190.879C680.5 185.259 665.198 181.364 651.355 200.728C644.195 210.745 638.076 229.067 648.045 238.416C686.572 274.546 738.642 201.827 693.352 188.921C673.576 183.286 662.945 180.715 650.766 199.899C639.571 217.533 651.214 234.964 669.485 241.389C691.896 249.27 700.537 241.918 706.568 220.753C712.154 201.153 683.706 187.395 666.111 187.763C654.526 188.005 641.379 212.762 644.807 224.286C648.834 237.824 679.777 249.644 692.976 245.276C710.856 239.36 714.448 210.219 700.077 200.083C689.164 192.386 675.574 189.799 662.926 186.195C651.815 183.029 647.521 192.058 643.854 201.561C635.544 223.096 642.157 232.951 663.183 242.069C682.722 250.543 705.676 255.168 712.812 230.127C722.418 196.416 690.553 189.732 663.709 183.446C643.788 178.781 651.38 212.779 656.276 219.96" stroke="#373636" stroke-width="7" stroke-linecap="round"/>
<path d="M546.66 174.994C560.329 178.889 574.45 182.093 587.887 186.742C594.351 188.978 595.683 194.907 602.812 196.938C608.782 198.64 616.975 202.933 622.834 199.672C629.852 195.767 627.093 186.877 631.676 181.39C638.921 172.715 645.091 160.931 648.709 150.584C650.999 144.034 679.252 158.711 685.397 157.406C706.504 152.923 687.474 97.2372 659.118 126.805C647.072 139.365 644.526 136.415 627.106 132.541C615.96 130.062 605.747 144.529 595.622 144.536C583.649 144.544 571.413 140.444 558.999 136.906C544.525 132.782 535.654 115.982 522.427 108.82C515.741 105.2 504.049 91.9985 499.337 85.5657C493.718 77.8931 486.589 73.4463 479.064 68.067C473.288 63.9376 467.212 63.062 462.068 58.7664C456.566 54.1709 445.002 45.7396 453.78 57.7253C462.339 69.4107 489.253 74.8199 484.5 91.5C481.301 102.728 503.992 112.316 511.876 114.563C530.251 119.799 536.657 121.675 547.222 136.522C552.581 144.054 555.499 164.832 552.94 173.812" stroke="#373636" stroke-width="7" stroke-linecap="round"/>
<path d="M675.055 214.553C674.961 207.787 668.6 202.703 667.975 195.366C667.118 185.294 663.107 174.37 660.931 164.468C658.188 151.986 657.68 145.464 651.838 134.966C645.802 124.119 638.654 108.859 634.538 96.0273" stroke="#373636" stroke-width="7" stroke-linecap="round"/>
<path d="M694.252 157.619C695.621 152.816 706.804 122.895 701.685 121.105C689.165 116.728 679.496 114.878 667.137 117.204" stroke="#373636" stroke-width="7" stroke-linecap="round"/>
<path d="M587.857 145.131C598.644 148.204 632.094 167.174 637.715 147.451" stroke="#373636" stroke-width="7" stroke-linecap="round"/>
<path d="M564.303 144.361C568.609 164.635 563.443 167.89 583.842 173.703C589.883 175.424 610.364 191.289 612.615 183.388C618.116 164.084 626.774 162.163 606.141 156.284C594.027 152.832 581.913 149.38 569.8 145.928" stroke="#373636" stroke-width="7" stroke-linecap="round"/>
<path d="M520.696 99.2471C526.742 122.523 581.74 128.529 602.767 134.521" stroke="#373636" stroke-width="7" stroke-linecap="round"/>
<path d="M596.045 64.2568C601.297 66.4052 603.877 72.2535 609.443 74.018C617.652 76.6207 626.048 78.7499 634.332 81.1104C641.542 83.165 642.766 86.2352 648.732 89.6714C658.345 95.2088 670.263 97.2929 680.864 100.314" stroke="#373636" stroke-width="7" stroke-linecap="round"/>
<path d="M636.903 108.588C638.15 101.189 629.298 90.7655 625.895 84.6494" stroke="#373636" stroke-width="7" stroke-linecap="round"/>
<path d="M570.569 122.373C574.178 122.93 579.364 113.882 583.168 111.765C587.248 109.495 601.281 108.504 605.651 108.762C617.131 109.439 629.614 113.155 640.834 115.651C648.292 117.309 632.476 110.297 630.012 109.595C621.334 107.122 612.045 103.312 603.095 102.09C595.618 101.069 590.247 104.185 583.229 105.179C577.503 105.989 575.811 114.884 569.387 116.093" stroke="#373636" stroke-width="7" stroke-linecap="round"/>
<path d="M511.668 99.6455C521.746 102.517 531.824 105.389 541.901 108.261C547.366 109.818 563.634 114.454 549.536 110.436C529.139 104.624 581.469 119.536 557.782 112.786C524.738 103.37 596.948 126.919 554.861 114.925C521.128 105.313 574.718 120.584 563.106 117.275" stroke="#373636" stroke-width="7" stroke-linecap="round"/>
<path d="M479.913 158.946C493.782 151.228 509.484 148.24 522.168 142.756C535.365 137.049 545.566 139.747 554.478 126.703" stroke="#373636" stroke-width="7" stroke-linecap="round"/>
<path d="M477.163 158.163C496.538 163.684 514.267 163.596 534.131 162.18C542.151 161.608 567.826 161.335 572.947 155.741" stroke="#373636" stroke-width="7" stroke-linecap="round"/>
<path d="M492.813 82.3867C509.374 87.1058 520.705 99.2498 537.188 103.947C553.167 108.5 565.284 110.364 580.765 107.45" stroke="#373636" stroke-width="7" stroke-linecap="round"/>
<path d="M689.906 120.721L688.34 126.218" stroke="#373636" stroke-width="7" stroke-linecap="round"/>
<path d="M690.306 129.75C692.89 130.149 695.056 123.509 695.056 123.509C695.056 123.509 693.875 129.551 695.803 131.316" stroke="#373636" stroke-width="7" stroke-linecap="round"/>
<path d="M373.114 95.6482C346.316 95.6482 322.061 93.9537 306.349 120.14C295.78 137.756 284.436 174.83 307.409 186.316C323.273 194.248 376.585 198.981 384.535 176.896C388.928 164.694 386.78 146.295 381.592 135.919" stroke="#373636" stroke-width="12" stroke-linecap="round"/>
<path d="M381.592 135.919C372.803 136.844 363.356 143.217 355.098 146.634C349.026 149.147 346.266 154.642 341.321 157.114" stroke="#433F3F" stroke-width="12" stroke-linecap="round"/>
<path d="M237.465 294.882C212.721 294.882 187.348 266.898 172.82 249.312C167.857 243.305 163.562 237.38 158.572 231.768C158.37 231.54 173.668 231.297 176.706 231.297C183.879 231.297 190.457 231.974 197.194 234.594C210.065 239.599 224.548 237.369 237.583 243.072C249.224 248.165 264.535 250.372 277.264 250.372C290.941 250.372 280.504 238.615 274.438 233.416C260.434 221.413 246.748 208.787 233.697 195.736C228.869 190.908 219.126 181.901 216.27 176.189" stroke="#373636" stroke-width="12" stroke-linecap="round"/>
<path d="M114.534 318.196C115.19 324.097 134.301 332.533 139.262 335.27C149.636 340.994 160.158 345.807 171.29 349.518C182.282 353.182 191.606 357.792 201.434 362.706" stroke="#373636" stroke-width="12" stroke-linecap="round"/>
<path d="M82.7412 306.599C83.425 312.07 88.0048 305.416 86.8625 301.418C85.2717 295.85 82.7412 305.053 82.7412 306.599Z" stroke="#373636" stroke-width="12" stroke-linecap="round"/>
<path d="M173.88 455.964C133.311 455.964 94.6569 447.486 54.1282 447.486C40.1381 447.486 44.309 442.906 50.949 433.12C59.0044 421.249 68.2506 413.216 79.4445 404.154C96.0941 390.676 127.183 398.46 144.207 407.215C162.433 416.589 167.319 438.196 171.761 455.964" stroke="#373636" stroke-width="12" stroke-linecap="round"/>
<path d="M171.76 489.876C144.494 489.876 119.303 510.536 94.5161 519.549C84.9979 523.01 75.3736 529.401 65.314 530.147C59.9224 530.546 53.6094 531.187 51.4195 536.505C49.1151 542.101 90.207 551.455 94.5161 552.401C109.345 555.657 124.96 555.915 139.968 557.582C145.434 558.19 151.662 559.82 156.924 559.82" stroke="#373636" stroke-width="12" stroke-linecap="round"/>
<path d="M120.893 511.071V553.461" stroke="#373636" stroke-width="12" stroke-linecap="round"/>
<path d="M146.326 559.819C159.027 565.593 171.787 568.306 184.477 572.536" stroke="#373636" stroke-width="12" stroke-linecap="round"/>
<path d="M182.358 623.405C160.772 601.82 91.2191 611.708 91.2191 647.78C91.2191 654.638 90.3673 662.11 91.6901 668.857C93.7915 679.574 108.343 685.291 117.595 688.992C133.375 695.304 154.611 703.308 171.76 696.293C198.467 685.367 197.813 635.053 173.88 621.757C163.948 616.239 149.74 608.992 138.319 608.569C134.094 608.412 126.822 607.395 123.247 609.629C120.365 611.43 119.139 613.684 116.653 614.927" stroke="#373636" stroke-width="12" stroke-linecap="round"/>
<path d="M195.075 824.758C218.153 808.09 234.726 792.877 250.065 768.591C252.122 765.333 253.116 758.475 255.599 755.992C257.509 754.081 262.358 752.996 262.782 750.457C264.2 741.949 229.162 721.165 222.158 716.663C216.635 713.113 211.239 708.849 205.673 706.065" stroke="#373636" stroke-width="12" stroke-linecap="round"/>
</svg>
