<svg width="100" height="100" viewBox="0 0 100 100" fill="none" xmlns="http://www.w3.org/2000/svg">
<circle cx="50" cy="50" r="48.5" stroke="#047857" stroke-width="3"/>
<path d="M46.5191 31.7656H41.3763C40.0123 31.7656 38.7042 32.3075 37.7397 33.2719C36.7752 34.2364 36.2334 35.5445 36.2334 36.9085V74.6228C36.2334 75.9867 36.7752 77.2948 37.7397 78.2593C38.7042 79.2238 40.0123 79.7656 41.3763 79.7656H58.5191C59.8831 79.7656 61.1912 79.2238 62.1557 78.2593C63.1201 77.2948 63.662 75.9867 63.662 74.6228V36.9085C63.662 35.5445 63.1201 34.2364 62.1557 33.2719C61.1912 32.3075 59.8831 31.7656 58.5191 31.7656H53.3763M46.5191 31.7656V35.1942H53.3763V31.7656M46.5191 31.7656H53.3763M46.5191 74.6228H53.3763" stroke="#047857" stroke-width="2" stroke-linecap="round" stroke-linejoin="round"/>
<path d="M55.8232 80.3252V81.742" stroke="#047857" stroke-width="2" stroke-linecap="round"/>
<path d="M56.8545 79.9385C57.1087 79.9702 56.9833 81.3533 56.9833 81.6129" stroke="#047857" stroke-width="2" stroke-linecap="round"/>
<path d="M56.4677 82C56.4677 83.134 56.7929 84.8962 55.6949 85.5062C55.0247 85.8786 54.1129 85.9928 53.3192 85.9928C51.2454 85.9928 49.2513 86.5643 47.1797 86.644C45.9291 86.6921 44.6974 86.7656 43.4445 86.7656C42.3823 86.7656 41.0728 86.97 40.0242 86.737C38.7421 86.4521 37.4727 85.826 36.2532 85.3488C35.4903 85.0503 34.7185 84.7761 33.9563 84.4758C33.7004 84.375 33.5265 84.1178 33.2693 83.9893C26.4139 80.5615 29.0013 71.3322 29.0332 65.2703C29.041 63.7877 29.0546 62.2963 28.9044 60.8195C28.7671 59.4693 28.4736 58.1558 28.3821 56.7981C28.2799 55.2828 28.0115 53.8153 28.0028 52.2901C27.9965 51.181 28.0028 50.0718 28.0028 48.9627C28.0028 44.7123 27.9061 40.134 29.2908 36.0612C29.8556 34.4001 30.3674 32.765 31.0153 31.131C31.4632 30.0015 31.7224 28.7143 32.7756 27.9683C33.8345 27.2182 34.9624 26.5402 36.289 26.4799C38.7509 26.368 41.1948 25.8478 43.6592 25.7214C45.3477 25.6348 47.3206 25.4667 48.94 25.9719C50.1743 26.3569 51.4283 26.6414 52.7038 26.8592C53.5584 27.0051 54.3984 26.9361 55.2512 27.0309C56.3559 27.1536 57.2959 27.1856 58.3353 26.7447C59.328 26.3235 60.2812 25.7712 61.2619 25.3136C62.0758 24.9338 63.1411 24.6126 63.8093 23.9826C64.2899 23.5294 64.9821 22.849 65.5839 22.5944C65.9386 22.4444 66.145 22.2522 66.4139 22.0077C66.6998 21.7478 67.2097 21.6648 67.5445 21.4639" stroke="#047857" stroke-width="2" stroke-linecap="round"/>
<path d="M32.5107 27.7744C33.6337 26.705 34.9584 25.8688 36.0957 24.8263C36.4919 24.4631 36.9133 23.986 37.4052 23.753C38.4582 23.2542 39.6737 22.7038 40.8541 22.6224C43.0146 22.4734 45.0881 21.8496 47.2512 21.8496C47.9811 21.8496 48.711 21.8496 49.4408 21.8496C50.243 21.8496 50.8984 22.1479 51.6877 22.2932C53.2031 22.5724 54.934 22.3512 56.4461 22.2432C59.5583 22.0209 63.2811 20.214 64.3244 17.084" stroke="#047857" stroke-width="2" stroke-linecap="round"/>
<path d="M63.4233 15.7967C62.7612 15.2082 61.5353 16.3086 62.3929 16.6697C63.1699 16.9969 63.7214 16.5091 63.9671 15.9255C64.5123 14.6307 62.3929 15.0895 62.3929 15.4103C62.3929 15.9214 62.2304 16.6971 62.6791 17.0561C63.332 17.5784 64.4537 16.3121 64.6827 15.7967C64.8116 15.5066 64.9264 15.1984 65.0691 14.8951C65.0693 14.8946 64.9494 15.6302 64.7113 15.8683C64.4941 16.0855 63.1216 16.9559 64.1961 16.9559C64.838 16.9559 65.0303 15.6863 65.2909 15.2171C65.6743 14.5271 63.7417 14.7663 63.3518 14.7663C62.563 14.7663 62.1353 14.4595 62.1353 15.4747C62.1353 16.0758 62.1353 16.6769 62.1353 17.2779C62.1353 17.514 62.534 18.0297 62.3071 17.9649C61.8197 17.8256 61.5012 17.1089 61.1622 16.7699C60.7487 16.3565 60.6753 14.9004 60.9833 14.3871C61.159 14.0942 62.3848 12.5021 62.9081 13.1563C63.0651 13.3526 63.5213 13.4182 63.7453 13.5427C63.9626 13.6634 64.2831 13.8068 64.511 13.8719C64.7591 13.9428 65.7892 14.4748 65.8705 14.6375" stroke="#047857" stroke-width="2" stroke-linecap="round"/>
<path d="M67.1582 21.7209C67.1582 21.276 68.1608 20.4539 68.575 20.2468C68.9548 20.0569 69.4183 19.5203 69.8058 19.4096C70.2835 19.2731 70.5614 18.9468 70.9578 18.6296C71.4276 18.2538 71.4738 19.277 71.5446 19.5956C71.7486 20.5139 72.5351 22.1889 71.2512 22.6511C70.1486 23.048 68.7633 22.999 68.1886 21.8497" stroke="#047857" stroke-width="2" stroke-linecap="round"/>
<path d="M69.4766 21.335C69.5067 21.1542 69.9763 20.3614 69.9846 20.3904C70.0276 20.5407 69.8356 21.1216 69.8916 21.1775C70.0391 21.325 70.4069 20.6986 70.507 21.0988C70.551 21.275 70.7964 21.9949 70.507 21.8502" stroke="#047857" stroke-width="2" stroke-linecap="round"/>
<path d="M72.0525 22.3651C72.0525 21.6114 72.0525 20.8577 72.0525 20.1039C72.0525 19.1994 71.2565 19.0437 70.6357 18.6299" stroke="#047857" stroke-width="2" stroke-linecap="round"/>
<path d="M62.7793 19.2735C62.8354 18.7126 63.7835 18.2251 64.1317 17.7995C64.4588 17.3997 64.8851 16.9826 65.0977 16.5043C65.4106 15.8004 65.8465 15.2523 66.2569 14.6367" stroke="#047857" stroke-width="2" stroke-linecap="round"/>
<path d="M51.7334 45.8263C51.7334 44.4899 50.1177 43.8206 49.1727 44.7656L44.6727 49.2656H42.7425C41.6011 49.2656 40.4245 49.93 40.0827 51.1706C39.8549 51.9977 39.7334 52.8681 39.7334 53.7656C39.7334 54.6631 39.8549 55.5335 40.0827 56.3605C40.4245 57.6012 41.6011 58.2656 42.7425 58.2656H44.6727L49.1727 62.7656C50.1177 63.7105 51.7334 63.0413 51.7334 61.7049V45.8263Z" fill="#047857"/>
<path d="M56.8171 46.8712C57.11 46.5783 57.5848 46.5783 57.8777 46.8712C61.6854 50.6788 61.6854 56.8522 57.8777 60.6598C57.5848 60.9527 57.11 60.9527 56.8171 60.6598C56.5242 60.3669 56.5242 59.892 56.8171 59.5992C60.0389 56.3773 60.0389 51.1537 56.8171 47.9319C56.5242 47.639 56.5242 47.1641 56.8171 46.8712Z" fill="#047857"/>
<path d="M54.1657 49.523C54.4586 49.2301 54.9335 49.2301 55.2264 49.523C57.5695 51.8661 57.5695 55.6651 55.2264 58.0082C54.9335 58.3011 54.4586 58.3011 54.1657 58.0082C53.8728 57.7154 53.8728 57.2405 54.1657 56.9476C55.9231 55.1902 55.9231 52.341 54.1657 50.5836C53.8728 50.2907 53.8728 49.8159 54.1657 49.523Z" fill="#047857"/>
</svg>
